<svg width="25.000000" height="25.000000" viewBox="0 0 25 25" fill="none" xmlns="http://www.w3.org/2000/svg" xmlns:xlink="http://www.w3.org/1999/xlink">
	<desc>
			Created with Pixso.
	</desc>
	<defs>
		<clipPath id="clip78_425">
			<rect id="home 2" width="25.000000" height="25.000000" fill="white" fill-opacity="0"/>
		</clipPath>
	</defs>
	<rect id="home 2" width="25.000000" height="25.000000" fill="#AC39D4" fill-opacity="0"/>
	<g clip-path="url(#clip78_425)">
		<path id="Vector" d="M24.32 10.87C24.32 10.87 24.32 10.87 24.32 10.87L14.12 0.67C13.69 0.23 13.11 0 12.49 0C11.88 0 11.3 0.23 10.87 0.67L0.67 10.86C0.67 10.87 0.67 10.87 0.66 10.87C-0.23 11.77 -0.23 13.23 0.67 14.12C1.08 14.53 1.62 14.77 2.19 14.79C2.22 14.8 2.24 14.8 2.27 14.8L2.67 14.8L2.67 22.3C2.67 23.79 3.88 25 5.37 25L9.36 25C9.76 25 10.09 24.67 10.09 24.26L10.09 18.38C10.09 17.7 10.64 17.15 11.32 17.15L13.67 17.15C14.35 17.15 14.9 17.7 14.9 18.38L14.9 24.26C14.9 24.67 15.23 25 15.63 25L19.62 25C21.11 25 22.31 23.79 22.31 22.3L22.31 14.8L22.69 14.8C23.31 14.8 23.88 14.56 24.32 14.12C25.22 13.23 25.22 11.77 24.32 10.87Z" fill="#2D60FF" fill-opacity="1.000000" fill-rule="nonzero"/>
	</g>
</svg>

